<svg width="0" height="0" class="hidden">
  <symbol fill="none" xmlns="http://www.w3.org/2000/svg" viewBox="0 0 24 24" id="1">
    <g clip-path="url(#clip0_672_222)">
      <path d="M20.317 4.49197C18.787 3.80197 17.147 3.29197 15.432 3.00197C15.4167 2.99904 15.4009 3.00093 15.3868 3.00738C15.3726 3.01383 15.3608 3.02452 15.353 3.03797C15.143 3.40697 14.909 3.88797 14.745 4.26797C12.9261 3.99621 11.0769 3.99621 9.25799 4.26797C9.07533 3.84683 8.86934 3.4362 8.64099 3.03797C8.63325 3.02436 8.62154 3.01342 8.60743 3.00663C8.59331 2.99984 8.57746 2.99752 8.56199 2.99997C6.84799 3.28997 5.20799 3.79997 3.67699 4.49097C3.66382 4.4965 3.65265 4.50592 3.64499 4.51797C0.532992 9.09297 -0.320008 13.555 0.0989923 17.961C0.100158 17.9718 0.103508 17.9822 0.108837 17.9917C0.114167 18.0011 0.121364 18.0094 0.129992 18.016C1.94638 19.3384 3.97233 20.3458 6.12299 20.996C6.13798 21.0006 6.15402 21.0006 6.16901 20.9959C6.18399 20.9913 6.19723 20.9823 6.20699 20.97C6.66899 20.35 7.08099 19.695 7.43299 19.007C7.45399 18.967 7.43399 18.919 7.39199 18.903C6.746 18.6597 6.12008 18.3661 5.51999 18.025C5.50921 18.0188 5.50012 18.0101 5.49355 17.9995C5.48698 17.989 5.48312 17.977 5.48233 17.9646C5.48153 17.9522 5.48383 17.9398 5.48901 17.9286C5.49418 17.9173 5.50208 17.9075 5.51199 17.9C5.63799 17.807 5.76399 17.71 5.88399 17.613C5.89479 17.6043 5.9078 17.5987 5.92158 17.5969C5.93535 17.5952 5.94934 17.5973 5.96199 17.603C9.88899 19.367 14.142 19.367 18.023 17.603C18.0357 17.5969 18.0498 17.5946 18.0638 17.5961C18.0778 17.5977 18.091 17.6032 18.102 17.612C18.222 17.71 18.347 17.807 18.474 17.9C18.484 17.9073 18.492 17.917 18.4974 17.9282C18.5027 17.9394 18.5052 17.9517 18.5046 17.9641C18.504 17.9765 18.5004 17.9885 18.494 17.9991C18.4876 18.0098 18.4787 18.0186 18.468 18.025C17.87 18.369 17.248 18.66 16.595 18.902C16.585 18.9056 16.5758 18.9114 16.5682 18.9188C16.5606 18.9263 16.5546 18.9353 16.5507 18.9452C16.5468 18.9551 16.5451 18.9658 16.5457 18.9764C16.5463 18.9871 16.5491 18.9975 16.554 19.007C16.914 19.694 17.326 20.348 17.779 20.969C17.7884 20.9817 17.8015 20.9912 17.8166 20.9963C17.8316 21.0013 17.8478 21.0015 17.863 20.997C20.0173 20.3486 22.0466 19.3407 23.865 18.016C23.8739 18.0098 23.8813 18.0017 23.8868 17.9924C23.8923 17.9831 23.8958 17.9727 23.897 17.962C24.397 12.868 23.059 8.44197 20.348 4.51997C20.3413 4.50723 20.3303 4.49729 20.317 4.49197ZM8.01999 15.278C6.83799 15.278 5.86299 14.209 5.86299 12.898C5.86299 11.586 6.81899 10.518 8.01999 10.518C9.22999 10.518 10.196 11.595 10.177 12.898C10.177 14.21 9.22099 15.278 8.01999 15.278ZM15.995 15.278C14.812 15.278 13.838 14.209 13.838 12.898C13.838 11.586 14.793 10.518 15.995 10.518C17.205 10.518 18.171 11.595 18.152 12.898C18.152 14.21 17.206 15.278 15.995 15.278Z" fill="white"></path>
    </g>
    <defs>
      <clipPath id="clip0_672_222">
        <rect width="24" height="24" fill="white"></rect>
      </clipPath>
    </defs>
  </symbol>
  <symbol fill="none" xmlns="http://www.w3.org/2000/svg" viewBox="0 0 24 24" id="2">
    <g clip-path="url(#clip0_672_225)">
      <path d="M23.5 6.50708C23.3641 6.02231 23.0994 5.58342 22.734 5.23708C22.3583 4.88008 21.8978 4.62471 21.396 4.49508C19.518 4.00008 11.994 4.00008 11.994 4.00008C8.85734 3.96439 5.72144 4.12135 2.60401 4.47008C2.1022 4.60929 1.64257 4.87036 1.26601 5.23008C0.896007 5.58608 0.628007 6.02508 0.488007 6.50608C0.1517 8.31782 -0.0117011 10.1574 6.83166e-06 12.0001C-0.0119932 13.8411 0.151007 15.6801 0.488007 17.4941C0.625007 17.9731 0.892007 18.4101 1.26301 18.7631C1.63401 19.1161 2.09601 19.3711 2.60401 19.5061C4.50701 20.0001 11.994 20.0001 11.994 20.0001C15.1347 20.0358 18.2746 19.8789 21.396 19.5301C21.8978 19.4004 22.3583 19.1451 22.734 18.7881C23.104 18.4351 23.367 17.9961 23.499 17.5181C23.8441 15.707 24.0119 13.8667 24 12.0231C24.026 10.1717 23.8584 8.32264 23.5 6.50608V6.50708ZM9.60201 15.4241V8.57708L15.862 12.0011L9.60201 15.4241Z" fill="white"></path>
    </g>
    <defs>
      <clipPath id="clip0_672_225">
        <rect width="24" height="24" fill="white"></rect>
      </clipPath>
    </defs>
  </symbol>
  <symbol fill="none" xmlns="http://www.w3.org/2000/svg" viewBox="0 0 24 24" id="3">
    <path d="M23.643 4.93708C22.808 5.30708 21.911 5.55708 20.968 5.67008C21.941 5.08787 22.669 4.17154 23.016 3.09208C22.1019 3.63507 21.1014 4.01727 20.058 4.22208C19.3564 3.47294 18.4271 2.9764 17.4143 2.80955C16.4016 2.6427 15.3621 2.81487 14.4572 3.29933C13.5524 3.78379 12.8328 4.55344 12.4102 5.48878C11.9875 6.42412 11.8855 7.47283 12.12 8.47208C10.2677 8.37907 8.45564 7.89763 6.80144 7.05898C5.14723 6.22034 3.68785 5.04324 2.51801 3.60408C2.11801 4.29408 1.88801 5.09408 1.88801 5.94608C1.88757 6.71307 2.07644 7.46832 2.43789 8.14481C2.79934 8.8213 3.32217 9.39812 3.96001 9.82408C3.22029 9.80054 2.49688 9.60066 1.85001 9.24108V9.30108C1.84994 10.3768 2.22204 11.4195 2.90319 12.2521C3.58434 13.0847 4.53258 13.656 5.58701 13.8691C4.9008 14.0548 4.18135 14.0821 3.48301 13.9491C3.78051 14.8747 4.36001 15.6841 5.14038 16.264C5.92075 16.8439 6.86293 17.1653 7.83501 17.1831C6.18484 18.4785 4.1469 19.1812 2.04901 19.1781C1.67739 19.1782 1.30609 19.1565 0.937012 19.1131C3.06649 20.4823 5.54535 21.2089 8.07701 21.2061C16.647 21.2061 21.332 14.1081 21.332 7.95208C21.332 7.75208 21.327 7.55008 21.318 7.35008C22.2293 6.69105 23.0159 5.87497 23.641 4.94008L23.643 4.93708Z" fill="white"></path>
  </symbol>
  <symbol fill="none" xmlns="http://www.w3.org/2000/svg" viewBox="0 0 24 24" id="4">
    <g clip-path="url(#clip0_672_232)">
      <path d="M0 12C0 17.123 3.211 21.497 7.73 23.218C7.62 22.281 7.503 20.736 7.755 19.652C7.972 18.72 9.156 13.714 9.156 13.714C9.156 13.714 8.799 12.999 8.799 11.94C8.799 10.28 9.761 9.04 10.96 9.04C11.98 9.04 12.472 9.805 12.472 10.722C12.472 11.747 11.819 13.279 11.482 14.7C11.201 15.889 12.079 16.859 13.251 16.859C15.374 16.859 17.007 14.62 17.007 11.388C17.007 8.527 14.951 6.528 12.016 6.528C8.618 6.528 6.623 9.077 6.623 11.712C6.623 12.739 7.018 13.839 7.512 14.438C7.55412 14.4832 7.58387 14.5386 7.59841 14.5986C7.61295 14.6587 7.61177 14.7215 7.595 14.781C7.504 15.159 7.302 15.97 7.263 16.136C7.21 16.354 7.09 16.401 6.863 16.295C5.371 15.601 4.439 13.42 4.439 11.668C4.439 7.899 7.176 4.439 12.331 4.439C16.475 4.439 19.696 7.392 19.696 11.338C19.696 15.455 17.101 18.769 13.497 18.769C12.286 18.769 11.149 18.139 10.759 17.396C10.759 17.396 10.16 19.678 10.015 20.236C9.733 21.32 8.951 22.692 8.466 23.471C9.584 23.815 10.77 24 12 24C18.627 24 24 18.627 24 12C24 5.373 18.627 0 12 0C5.373 0 0 5.373 0 12Z" fill="white"></path>
    </g>
    <defs>
      <clipPath id="clip0_672_232">
        <rect width="24" height="24" fill="white"></rect>
      </clipPath>
    </defs>
  </symbol>
  <symbol fill="none" xmlns="http://www.w3.org/2000/svg" viewBox="0 0 24 24" id="5">
    <g clip-path="url(#clip0_672_235)">
      <path fill-rule="evenodd" clip-rule="evenodd" d="M24 12C24 18.627 18.627 24 12 24C5.373 24 0 18.627 0 12C0 5.373 5.373 0 12 0C18.627 0 24 5.373 24 12ZM19.688 11.058C19.882 11.335 19.992 11.662 20.004 12C20.0092 12.3307 19.9207 12.6561 19.7487 12.9385C19.5767 13.221 19.3282 13.4489 19.032 13.596C19.046 13.772 19.046 13.948 19.032 14.124C19.032 16.812 15.9 18.996 12.036 18.996C8.172 18.996 5.04 16.812 5.04 14.124C5.02649 13.9483 5.02649 13.7717 5.04 13.596C4.81117 13.4889 4.60825 13.3335 4.44519 13.1405C4.28213 12.9475 4.16279 12.7215 4.09537 12.478C4.02796 12.2345 4.01408 11.9793 4.05467 11.7299C4.09526 11.4805 4.18937 11.2429 4.33053 11.0333C4.47169 10.8238 4.65656 10.6473 4.87241 10.516C5.08826 10.3847 5.32999 10.3016 5.58098 10.2726C5.83197 10.2436 6.08626 10.2693 6.32638 10.3479C6.5665 10.4265 6.78676 10.5562 6.972 10.728C8.35473 9.79023 9.98146 9.27718 11.652 9.252L12.54 5.088C12.55 5.03979 12.5694 4.99405 12.5972 4.95341C12.625 4.91277 12.6605 4.87805 12.7018 4.85127C12.7431 4.82448 12.7894 4.80615 12.8378 4.79735C12.8862 4.78855 12.9359 4.78945 12.984 4.8L15.924 5.388C16.0676 5.14132 16.2944 4.9539 16.5637 4.85937C16.833 4.76484 17.1272 4.7694 17.3934 4.87222C17.6597 4.97505 17.8806 5.1694 18.0164 5.42041C18.1523 5.67141 18.1943 5.96262 18.1348 6.24177C18.0753 6.52092 17.9182 6.76972 17.6918 6.94352C17.4654 7.11732 17.1845 7.20473 16.8995 7.19006C16.6144 7.1754 16.3439 7.05962 16.1366 6.8635C15.9292 6.66739 15.7985 6.40378 15.768 6.12L13.2 5.58L12.42 9.324C14.0702 9.3594 15.6749 9.87206 17.04 10.8C17.2222 10.6248 17.4402 10.4911 17.679 10.4082C17.9178 10.3252 18.1718 10.295 18.4234 10.3195C18.675 10.344 18.9183 10.4227 19.1366 10.5502C19.3549 10.6777 19.543 10.8509 19.688 11.058ZM8.206 12.533C8.11841 12.6641 8.05749 12.8111 8.02672 12.9657C7.99595 13.1203 7.99593 13.2794 8.02667 13.4341C8.08874 13.7463 8.27231 14.0211 8.537 14.198C8.80169 14.3749 9.1258 14.4394 9.43805 14.3773C9.59266 14.3466 9.7397 14.2857 9.87078 14.1981C10.0019 14.1106 10.1144 13.9981 10.202 13.867C10.3789 13.6023 10.4434 13.2782 10.3813 12.9659C10.3193 12.6537 10.1357 12.3789 9.871 12.202C9.60631 12.0251 9.2822 11.9606 8.96995 12.0227C8.6577 12.0847 8.3829 12.2683 8.206 12.533ZM12.012 17.424C13.077 17.468 14.125 17.19 14.976 16.548C15.0397 16.4859 15.076 16.4011 15.0772 16.3122C15.0783 16.2234 15.0441 16.1377 14.982 16.074C14.9513 16.0425 14.9146 16.0173 14.8742 16C14.8337 15.9826 14.7903 15.9734 14.7462 15.9728C14.6574 15.9717 14.5717 16.0059 14.508 16.068C13.7797 16.5904 12.895 16.8487 12 16.8C11.1061 16.8399 10.2255 16.5732 9.504 16.044C9.44182 15.993 9.36289 15.9669 9.28256 15.9708C9.20222 15.9748 9.12622 16.0085 9.06935 16.0653C9.01247 16.1222 8.97879 16.1982 8.97484 16.2786C8.97089 16.3589 8.99697 16.4378 9.048 16.5C9.89937 17.1416 10.9469 17.4681 12.012 17.424ZM14.093 14.246C14.291 14.378 14.511 14.496 14.748 14.496C14.9108 14.4979 15.0722 14.4666 15.2225 14.4041C15.3728 14.3416 15.5087 14.2492 15.6221 14.1324C15.7355 14.0156 15.824 13.877 15.8821 13.725C15.9401 13.5729 15.9667 13.4106 15.96 13.248C15.9599 13.0407 15.9062 12.837 15.8039 12.6567C15.7017 12.4763 15.5545 12.3256 15.3767 12.219C15.1989 12.1125 14.9965 12.0539 14.7893 12.0488C14.5821 12.0437 14.3771 12.0924 14.1943 12.1902C14.0115 12.2879 13.8571 12.4313 13.7462 12.6064C13.6353 12.7815 13.5717 12.9824 13.5615 13.1894C13.5513 13.3964 13.5949 13.6026 13.688 13.7877C13.7812 13.9729 13.9207 14.1308 14.093 14.246Z" fill="white"></path>
    </g>
    <defs>
      <clipPath id="clip0_672_235">
        <rect width="24" height="24" fill="white"></rect>
      </clipPath>
    </defs>
  </symbol>
  <symbol fill="none" xmlns="http://www.w3.org/2000/svg" viewBox="0 0 24 24" id="6">
    <g clip-path="url(#clip0_672_238)">
      <path fill-rule="evenodd" clip-rule="evenodd" d="M0 12.067C0 18.033 4.333 22.994 10 24V15.333H7V12H10V9.333C10 6.333 11.933 4.667 14.667 4.667C15.533 4.667 16.467 4.8 17.333 4.933V8H15.8C14.333 8 14 8.733 14 9.667V12H17.2L16.667 15.333H14V24C19.667 22.994 24 18.034 24 12.067C24 5.43 18.6 0 12 0C5.4 0 0 5.43 0 12.067Z" fill="white"></path>
    </g>
    <defs>
      <clipPath id="clip0_672_238">
        <rect width="24" height="24" fill="white"></rect>
      </clipPath>
    </defs>
  </symbol>
</svg>